<mxfile host="65bd71144e">
    <diagram id="qMU_QtssoCHm_jfCgvAC" name="ページ1">
        <mxGraphModel dx="804" dy="426" grid="1" gridSize="10" guides="1" tooltips="1" connect="1" arrows="1" fold="1" page="1" pageScale="1" pageWidth="827" pageHeight="1169" math="1" shadow="0">
            <root>
                <mxCell id="0"/>
                <mxCell id="1" parent="0"/>
                <mxCell id="2" style="edgeStyle=none;html=1;exitX=0.5;exitY=1;exitDx=0;exitDy=0;exitPerimeter=0;entryX=0.5;entryY=0;entryDx=0;entryDy=0;endArrow=open;endFill=0;" edge="1" parent="1" source="4" target="11">
                    <mxGeometry relative="1" as="geometry">
                        <Array as="points">
                            <mxPoint x="420" y="400"/>
                        </Array>
                    </mxGeometry>
                </mxCell>
                <mxCell id="17" style="edgeStyle=none;html=1;exitX=1;exitY=0.5;exitDx=0;exitDy=0;exitPerimeter=0;entryX=0.5;entryY=0;entryDx=0;entryDy=0;rounded=0;curved=0;" edge="1" parent="1" source="4" target="16">
                    <mxGeometry relative="1" as="geometry">
                        <Array as="points">
                            <mxPoint x="610" y="350"/>
                        </Array>
                    </mxGeometry>
                </mxCell>
                <mxCell id="4" value="\(number &amp;gt;0\)" style="strokeWidth=1;html=1;shape=mxgraph.flowchart.decision;whiteSpace=wrap;fontSize=20;fontFamily=Lucida Console;" vertex="1" parent="1">
                    <mxGeometry x="330" y="310" width="180" height="80" as="geometry"/>
                </mxCell>
                <mxCell id="5" value="T" style="text;html=1;align=center;verticalAlign=middle;resizable=0;points=[];autosize=1;strokeColor=none;fillColor=none;fontSize=22;fontFamily=Lucida Console;" vertex="1" parent="1">
                    <mxGeometry x="390" y="380" width="40" height="40" as="geometry"/>
                </mxCell>
                <mxCell id="6" value="F" style="text;html=1;align=center;verticalAlign=middle;resizable=0;points=[];autosize=1;strokeColor=none;fillColor=none;fontSize=22;fontFamily=Lucida Console;" vertex="1" parent="1">
                    <mxGeometry x="500" y="350" width="40" height="40" as="geometry"/>
                </mxCell>
                <mxCell id="7" style="edgeStyle=none;html=1;exitX=0.5;exitY=1;exitDx=0;exitDy=0;entryX=0.5;entryY=0;entryDx=0;entryDy=0;endArrow=open;endFill=0;" edge="1" parent="1" source="8" target="10">
                    <mxGeometry relative="1" as="geometry">
                        <Array as="points">
                            <mxPoint x="420" y="220"/>
                        </Array>
                    </mxGeometry>
                </mxCell>
                <mxCell id="8" value="&amp;nbsp; &amp;nbsp; 整数型の変数&lt;div&gt;&amp;nbsp; &amp;nbsp; \(number\)&lt;/div&gt;" style="shape=hexagon;perimeter=hexagonPerimeter2;whiteSpace=wrap;html=1;fixedSize=1;fontSize=20;align=left;" vertex="1" parent="1">
                    <mxGeometry x="335" y="150" width="170" height="60" as="geometry"/>
                </mxCell>
                <mxCell id="9" style="edgeStyle=none;html=1;exitX=0.5;exitY=1;exitDx=0;exitDy=0;endArrow=open;endFill=0;" edge="1" parent="1" source="10" target="4">
                    <mxGeometry relative="1" as="geometry"/>
                </mxCell>
                <mxCell id="10" value="\(number\)&lt;div&gt;へ&lt;span style=&quot;background-color: transparent;&quot;&gt;値を入力&lt;/span&gt;&lt;/div&gt;" style="shape=parallelogram;perimeter=parallelogramPerimeter;whiteSpace=wrap;html=1;fixedSize=1;fontSize=20;size=20;" vertex="1" parent="1">
                    <mxGeometry x="340" y="230" width="160" height="60" as="geometry"/>
                </mxCell>
                <mxCell id="11" value="positive number&lt;div&gt;と表示&lt;/div&gt;" style="shape=parallelogram;perimeter=parallelogramPerimeter;whiteSpace=wrap;html=1;fixedSize=1;fontSize=20;fontFamily=Helvetica;size=20;" vertex="1" parent="1">
                    <mxGeometry x="330" y="420" width="180" height="60" as="geometry"/>
                </mxCell>
                <mxCell id="12" style="edgeStyle=none;html=1;exitX=0.5;exitY=1;exitDx=0;exitDy=0;exitPerimeter=0;endArrow=open;endFill=0;" edge="1" parent="1" source="13" target="8">
                    <mxGeometry relative="1" as="geometry"/>
                </mxCell>
                <mxCell id="13" value="開始" style="strokeWidth=1;html=1;shape=mxgraph.flowchart.terminator;whiteSpace=wrap;fontFamily=Lucida Console;fontSize=20;" vertex="1" parent="1">
                    <mxGeometry x="390" y="100" width="60" height="30" as="geometry"/>
                </mxCell>
                <mxCell id="14" value="終了" style="strokeWidth=1;html=1;shape=mxgraph.flowchart.terminator;whiteSpace=wrap;fontFamily=Lucida Console;fontSize=20;" vertex="1" parent="1">
                    <mxGeometry x="390" y="520" width="60" height="30" as="geometry"/>
                </mxCell>
                <mxCell id="15" style="edgeStyle=none;html=1;exitX=0.5;exitY=1;exitDx=0;exitDy=0;entryX=0.5;entryY=0;entryDx=0;entryDy=0;entryPerimeter=0;endArrow=open;endFill=0;" edge="1" parent="1" source="11" target="14">
                    <mxGeometry relative="1" as="geometry"/>
                </mxCell>
                <mxCell id="18" style="edgeStyle=none;html=1;exitX=0.5;exitY=1;exitDx=0;exitDy=0;rounded=0;curved=0;" edge="1" parent="1" source="16">
                    <mxGeometry relative="1" as="geometry">
                        <mxPoint x="420" y="500" as="targetPoint"/>
                        <Array as="points">
                            <mxPoint x="610" y="500"/>
                        </Array>
                    </mxGeometry>
                </mxCell>
                <mxCell id="16" value="zero or negative &lt;br&gt;number&lt;span style=&quot;background-color: transparent;&quot;&gt;と表示&lt;/span&gt;" style="shape=parallelogram;perimeter=parallelogramPerimeter;whiteSpace=wrap;html=1;fixedSize=1;fontSize=20;fontFamily=Helvetica;size=20;" vertex="1" parent="1">
                    <mxGeometry x="520" y="420" width="180" height="60" as="geometry"/>
                </mxCell>
            </root>
        </mxGraphModel>
    </diagram>
</mxfile>